<svg width="800" height="800" viewBox="0 0 800 800" fill="none" xmlns="http://www.w3.org/2000/svg">
<path d="M400 316.69L382.137 334.18C386.84 338.983 393.277 341.69 400 341.69C406.723 341.69 413.16 338.983 417.863 334.18L400 316.69ZM350.483 479.047C331.097 462.553 311.636 443.45 297.212 423.697C282.492 403.537 275 385.4 275 370.31H225C225 400.833 239.488 429.43 256.831 453.183C274.468 477.337 297.149 499.317 318.086 517.13L350.483 479.047ZM275 370.31C275 333.387 291.485 313.942 308.444 307.6C325.684 301.154 353.17 304.595 382.137 334.18L417.863 299.199C379.333 259.848 331.819 245.479 290.932 260.767C249.766 276.16 225 317.995 225 370.31H275ZM481.913 517.13C502.85 499.317 525.533 477.337 543.17 453.183C560.513 429.43 575 400.833 575 370.31H525C525 385.4 517.507 403.54 502.79 423.697C488.363 443.453 468.903 462.553 449.517 479.047L481.913 517.13ZM575 370.31C575 317.995 550.233 276.16 509.067 260.767C468.18 245.479 420.667 259.848 382.137 299.199L417.863 334.18C446.83 304.595 474.317 301.154 491.557 307.6C508.517 313.942 525 333.387 525 370.31H575ZM318.086 517.13C344.07 539.233 364.76 558.13 400 558.13V508.13C386.2 508.13 379.427 503.667 350.483 479.047L318.086 517.13ZM449.517 479.047C420.573 503.667 413.8 508.13 400 508.13V558.13C435.24 558.13 455.93 539.233 481.913 517.13L449.517 479.047Z" fill="white"/>
<path d="M566.666 111.261C517.636 82.899 460.713 66.6666 400 66.6666C215.905 66.6666 66.6665 215.905 66.6665 400C66.6665 453.323 79.1872 503.72 101.448 548.417C107.364 560.293 109.334 573.87 105.904 586.687L86.0502 660.89C77.4315 693.1 106.9 722.567 139.111 713.95L213.313 694.097C226.131 690.667 239.707 692.637 251.584 698.55C296.279 720.813 346.676 733.333 400 733.333C584.093 733.333 733.333 584.093 733.333 400C733.333 339.287 717.1 282.362 688.74 233.333" stroke="white" stroke-width="50" stroke-linecap="round"/>
</svg>
