<svg width="800" height="800" viewBox="0 0 800 800" fill="none" xmlns="http://www.w3.org/2000/svg">
<path d="M300 400C300 384.47 300 376.703 302.537 370.577C305.92 362.41 312.41 355.92 320.577 352.537C326.703 350 334.47 350 350 350H450C465.53 350 473.297 350 479.423 352.537C487.59 355.92 494.08 362.41 497.463 370.577C500 376.703 500 384.47 500 400C500 415.53 500 423.297 497.463 429.423C494.08 437.59 487.59 444.08 479.423 447.463C473.297 450 465.53 450 450 450H350C334.47 450 326.703 450 320.577 447.463C312.41 444.08 305.92 437.59 302.537 429.423C300 423.297 300 415.53 300 400Z" stroke="white" stroke-width="50"/>
<path d="M683.333 233.333V433.333C683.333 559.04 683.333 621.897 644.28 660.947C605.23 700 542.373 700 416.666 700H383.333M116.667 233.333V433.333C116.667 559.04 116.666 621.897 155.719 660.947C179.211 684.44 211.317 693.8 260.536 697.53" stroke="white" stroke-width="50" stroke-linecap="round"/>
<path d="M400 100H133.333C101.906 100 86.1928 100 76.4295 109.763C66.6665 119.526 66.6665 135.24 66.6665 166.667C66.6665 198.094 66.6665 213.807 76.4295 223.57C86.1928 233.333 101.906 233.333 133.333 233.333H666.666C698.093 233.333 713.806 233.333 723.57 223.57C733.333 213.807 733.333 198.094 733.333 166.667C733.333 135.24 733.333 119.526 723.57 109.763C713.806 100 698.093 100 666.666 100H533.333" stroke="white" stroke-width="50" stroke-linecap="round"/>
</svg>
