<svg width="800" height="800" viewBox="0 0 800 800" fill="none" xmlns="http://www.w3.org/2000/svg">
<path d="M300 533.333C328.346 554.343 362.82 566.667 400 566.667C437.18 566.667 471.653 554.343 500 533.333" stroke="white" stroke-width="50" stroke-linecap="round"/>
<path d="M733.333 406.797V457.5C733.333 587.527 733.333 652.543 694.28 692.937C655.23 733.333 592.373 733.333 466.666 733.333H333.333C207.625 733.333 144.772 733.333 105.719 692.937C66.6665 652.543 66.6665 587.527 66.6665 457.5V406.797C66.6665 330.516 66.6665 292.376 83.9732 260.758C101.28 229.14 132.898 209.517 196.134 170.271L262.801 128.896C329.646 87.4096 363.07 66.6666 400 66.6666C436.93 66.6666 470.353 87.4096 537.2 128.896L603.866 170.271C667.103 209.517 698.72 229.14 716.027 260.758" stroke="white" stroke-width="50" stroke-linecap="round"/>
</svg>
