<svg width="436" height="431" viewBox="0 0 436 431" fill="none" xmlns="http://www.w3.org/2000/svg">
<path d="M291.45 108.909C356.931 102.1 411.088 136.956 418.748 176.645C426.654 217.61 398.639 267.007 326.091 290.368C324.972 356.344 300.858 405.475 258.466 413.66C216.073 421.845 174.455 392.553 145.373 324.919C74.7264 332.018 20.7575 293.021 15.5574 245.597C10.3572 198.172 41.5165 162.506 110.171 144.29C104.721 72.7176 130.339 26.2609 181.782 16.3286C233.224 6.39624 280.4 53.623 291.45 108.909Z" stroke="white" stroke-width="30"/>
<path d="M290.327 202.428C297.944 241.896 277.554 280.008 238.094 287.627C198.635 295.246 156.81 278.613 147.431 230.018C139.814 190.55 159.429 158.011 205.087 144.761C245.791 132.948 281.684 157.645 290.327 202.428Z" stroke="white" stroke-width="30"/>
</svg>
